<svg width="380" height="201" viewBox="0 0 380 201" fill="none" xmlns="http://www.w3.org/2000/svg">
<path d="M30 89H51.9574L54 116H32.5532L30 89Z" fill="#AAB7B5" fill-opacity="0.14"/>
<path d="M261 24H239.043L237 51H258.447L261 24Z" fill="#AAB7B5" fill-opacity="0.31"/>
<path d="M75 71H89.6383L91 89H76.7021L75 71Z" fill="#AAB7B5" fill-opacity="0.82"/>
<path d="M380 106H365.362L364 124H378.298L380 106Z" fill="#AAB7B5" fill-opacity="0.82"/>
<path d="M58 167H43.3617L42 185H56.2979L58 167Z" fill="#AAB7B5" fill-opacity="0.82"/>
<rect x="152" y="184" width="56" height="17" fill="#AAB7B5" fill-opacity="0.46"/>
<rect x="321" y="172" width="21" height="20" fill="#AAB7B5" fill-opacity="0.72"/>
<rect x="270" y="116" width="26" height="25" fill="#AAB7B5" fill-opacity="0.24"/>
<path d="M50.5 14.5H76.5V39.5H50.5V14.5Z" fill="#AAB7B5" fill-opacity="0.24"/>
<path d="M304 2H330V27H304V2Z" fill="#AAB7B5" fill-opacity="0.24"/>
<path d="M0 142H17V158H0V142Z" fill="#AAB7B5" fill-opacity="0.24"/>
<path d="M136.165 18.27L189.226 6.99995L186.571 25.3617L183.916 43.7234L130.855 54.9934L136.165 18.27Z" fill="#AAB7B5" fill-opacity="0.24"/>
<rect x="105" y="116" width="26" height="46" fill="#AAB7B5" fill-opacity="0.31"/>
<path d="M245 2V18" stroke="#181818" stroke-width="3" stroke-linecap="round" stroke-linejoin="round"/>
<path d="M237 10L253 10" stroke="#181818" stroke-width="3" stroke-linecap="round" stroke-linejoin="round"/>
<path d="M106.5 172V181" stroke="#181818" stroke-width="2" stroke-linecap="round" stroke-linejoin="round"/>
<path d="M102 176.5L111 176.5" stroke="#181818" stroke-width="2" stroke-linecap="round" stroke-linejoin="round"/>
<path d="M218.5 125.5L201.5 106.5C203.5 104.5 249.197 85.7675 254.5 83.9999C257.5 83 263 79.9999 265.5 81.9999C268 83.9999 275.5 89.9999 280 93.9999C283.6 97.1999 282.5 99.3332 281.5 99.9999C264.333 107.167 229 122.1 225 124.5C221 126.9 219 126.167 218.5 125.5Z" fill="#CEE8E4"/>
<path d="M181.5 61.5001L129 84.5001C128 85 126 86.5 124 84.5001C120.8 80.9001 109.333 74.3334 104 71.5C99.1997 68.3 102 64.5 106.5 62.5L129 52.0001C140.166 46.5001 163 36.0001 165 38.0001C172 43.5001 178 50.5001 181.5 55.0001C184.3 58.6001 182.666 60.8334 181.5 61.5001Z" fill="#CEE8E4"/>
<path d="M135.5 85L192 60.5L249 84.5L190.5 108L135.5 85Z" stroke="#181818" stroke-width="3" stroke-linecap="round" stroke-linejoin="round"/>
<path d="M135.5 85C127 76 119.6 74.2 112 69C111.333 68.5 110.9 67 114.5 65C118.1 63 154 46.8333 171.5 39C172 38.8333 173.2 38.7 174 39.5C175 40.5 192 54.5 192 60.5" stroke="#181818" stroke-width="3"/>
<path d="M135.5 85C133.167 86 125.9 90 115.5 98C113 100.5 118 102.5 119.5 103.5L172 127C172.833 127.333 174.9 127.7 176.5 126.5C178.1 125.3 186.5 114 190.5 108.5L205.5 126.5C205.833 126.833 207 127.3 209 126.5C211 125.7 248.833 109.167 267.5 101C268.333 100.5 269.5 99 267.5 97C265 94.5 254 84.5 249 84.5" stroke="#181818" stroke-width="3"/>
<path d="M249 84.4999L269.5 67.4999C270 66.9999 270.3 65.5999 267.5 63.9999C264.7 62.3999 228.667 47.9999 211 40.9999C210.167 40.8333 208.441 40.8723 207.5 41.4999C206 42.5 192.5 56.5 192 60" stroke="#181818" stroke-width="3"/>
<path d="M130.5 109V161C130.667 162.333 132 165.3 136 166.5C140 167.7 173 179.333 189.5 185.5L190.5 108" stroke="#181818" stroke-width="3"/>
<path d="M190.5 186.5L248.5 166C249.833 165.833 252.5 164.2 252.5 159C252.5 153.8 252.5 125.833 252.5 112.5" stroke="#181818" stroke-width="3"/>
<path d="M177.778 173L174.222 171.588V161.706L172 160.765L176.444 157L180 162.647H177.778V173Z" fill="#181818"/>
<path d="M242 139L231 144V157.5L242 152.5V139Z" fill="#74BEB1" fill-opacity="0.35"/>
<path d="M247.5 142.5L236.5 147.5V161L247.5 156V142.5Z" fill="#181818"/>
<path d="M288.616 62.8489C288.721 66.6378 289.839 70.1244 291.661 72.9742C290.236 75.445 288.6 77.4356 286.991 80.3977C295.457 80.6475 301.004 80.4927 304.755 80.3879C313.391 80.1468 320.167 71.9033 319.89 61.9757C319.612 52.048 312.387 44.1955 303.751 44.4367C295.115 44.6778 288.338 52.9212 288.616 62.8489Z" fill="#CEE8E4"/>
<path d="M283.783 73.0438C284.155 73.5515 284.171 74.2374 283.822 74.7613C283.044 75.9299 282.216 77 281.401 78.053C281.289 78.1976 281.177 78.3419 281.066 78.486C280.648 79.0267 280.232 79.5721 279.816 80.1411C288.253 80.2742 293.978 80.1144 297.982 80.0026L297.982 80.0026C307.368 79.7405 314.763 71.9199 314.501 62.5347C314.239 53.1495 306.419 45.7538 297.033 46.0158C287.648 46.2779 280.253 54.0985 280.515 63.4837C280.615 67.0676 281.815 70.3573 283.783 73.0438Z" stroke="#181818" stroke-width="3" stroke-linecap="round" stroke-linejoin="round"/>
<path d="M302.645 64.9453C302.645 67.3047 302.156 69.1094 301.18 70.3594C300.203 71.6094 298.773 72.2344 296.891 72.2344C295.031 72.2344 293.609 71.6211 292.625 70.3945C291.641 69.168 291.137 67.4102 291.113 65.1211V61.9805C291.113 59.5977 291.605 57.7891 292.59 56.5547C293.582 55.3203 295.008 54.7031 296.867 54.7031C298.727 54.7031 300.148 55.3164 301.133 56.543C302.117 57.7617 302.621 59.5156 302.645 61.8047V64.9453ZM299.258 61.5C299.258 60.0859 299.062 59.0586 298.672 58.418C298.289 57.7695 297.688 57.4453 296.867 57.4453C296.07 57.4453 295.48 57.7539 295.098 58.3711C294.723 58.9805 294.523 59.9375 294.5 61.2422V65.3906C294.5 66.7812 294.688 67.8164 295.062 68.4961C295.445 69.168 296.055 69.5039 296.891 69.5039C297.719 69.5039 298.316 69.1797 298.684 68.5312C299.051 67.8828 299.242 66.8906 299.258 65.5547V61.5Z" fill="#181818"/>
</svg>
